G04 PROTEUS GERBER X2 FILE*
%TF.GenerationSoftware,Labcenter,Proteus,8.17-SP2-Build37159*%
%TF.CreationDate,2025-10-11T08:53:27+00:00*%
%TF.FileFunction,Legend,Top*%
%TF.FilePolarity,Positive*%
%TF.Part,Single*%
%TF.SameCoordinates,{a55e4d6c-05e1-4aca-87d3-cb5da3fea1e9}*%
%FSLAX45Y45*%
%MOMM*%
G01*
%TA.AperFunction,Profile*%
%ADD16C,0.101600*%
%TA.AperFunction,Material*%
%ADD17C,0.101600*%
%TD.AperFunction*%
D16*
X-2750000Y+0D02*
X+0Y+0D01*
X+0Y+1750000D01*
X-2750000Y+1750000D01*
X-2750000Y+0D01*
D17*
X-1492000Y+1127000D02*
X-1365000Y+1127000D01*
X-1365000Y+111000D01*
X-1873000Y+111000D01*
X-1873000Y+1127000D01*
X-1746000Y+1127000D01*
X-1619000Y+1000000D02*
X-1593124Y+1002436D01*
X-1569152Y+1009485D01*
X-1547562Y+1020762D01*
X-1528830Y+1035878D01*
X-1513431Y+1054446D01*
X-1501842Y+1076081D01*
X-1494540Y+1100394D01*
X-1492000Y+1127000D01*
X-1619000Y+1000000D02*
X-1645606Y+1002436D01*
X-1669919Y+1009485D01*
X-1691554Y+1020762D01*
X-1710122Y+1035878D01*
X-1725238Y+1054446D01*
X-1736515Y+1076081D01*
X-1743564Y+1100394D01*
X-1746000Y+1127000D01*
X-1885700Y+1157480D02*
X-1885700Y+1233680D01*
X-1805690Y+1157480D01*
X-1805690Y+1233680D01*
X-1699010Y+1157480D02*
X-1779020Y+1157480D01*
X-1779020Y+1233680D01*
X-1699010Y+1233680D01*
X-1779020Y+1195580D02*
X-1725680Y+1195580D01*
X-1592330Y+1233680D02*
X-1659005Y+1233680D01*
X-1659005Y+1208280D01*
X-1605665Y+1208280D01*
X-1592330Y+1195580D01*
X-1592330Y+1170180D01*
X-1605665Y+1157480D01*
X-1645670Y+1157480D01*
X-1659005Y+1170180D01*
X-1485650Y+1233680D02*
X-1552325Y+1233680D01*
X-1552325Y+1208280D01*
X-1498985Y+1208280D01*
X-1485650Y+1195580D01*
X-1485650Y+1170180D01*
X-1498985Y+1157480D01*
X-1538990Y+1157480D01*
X-1552325Y+1170180D01*
X-1378970Y+1233680D02*
X-1445645Y+1233680D01*
X-1445645Y+1208280D01*
X-1392305Y+1208280D01*
X-1378970Y+1195580D01*
X-1378970Y+1170180D01*
X-1392305Y+1157480D01*
X-1432310Y+1157480D01*
X-1445645Y+1170180D01*
X-2161100Y+178330D02*
X-2148400Y+164995D01*
X-2148400Y+124990D01*
X-2173800Y+98320D01*
X-2199200Y+98320D01*
X-2224600Y+124990D01*
X-2224600Y+164995D01*
X-2211900Y+178330D01*
X-2199200Y+231670D02*
X-2224600Y+258340D01*
X-2148400Y+258340D01*
X-1251080Y+1365380D02*
X-732920Y+1365380D01*
X-732920Y+1632080D01*
X-1251080Y+1632080D01*
X-1251080Y+1365380D01*
X-814200Y+1367920D02*
X-814200Y+1629540D01*
X-661800Y+1500000D02*
X-732920Y+1500000D01*
X-1251080Y+1500000D02*
X-1322200Y+1500000D01*
X-1152020Y+1334900D02*
X-1152020Y+1258700D01*
X-1072010Y+1258700D01*
X-965330Y+1258700D02*
X-1045340Y+1258700D01*
X-1045340Y+1334900D01*
X-965330Y+1334900D01*
X-1045340Y+1296800D02*
X-992000Y+1296800D01*
X-938660Y+1258700D02*
X-938660Y+1334900D01*
X-885320Y+1334900D01*
X-858650Y+1309500D01*
X-858650Y+1284100D01*
X-885320Y+1258700D01*
X-938660Y+1258700D01*
X-750000Y+377000D02*
X-750000Y+504000D01*
X-813500Y+504000D02*
X-686500Y+504000D01*
X-686500Y+1012000D01*
X-813500Y+1012000D01*
X-813500Y+504000D01*
X-750000Y+1012000D02*
X-750000Y+1139000D01*
X-843980Y+651320D02*
X-920180Y+651320D01*
X-920180Y+717995D01*
X-907480Y+731330D01*
X-894780Y+731330D01*
X-882080Y+717995D01*
X-882080Y+651320D01*
X-882080Y+717995D02*
X-869380Y+731330D01*
X-843980Y+731330D01*
X-907480Y+771335D02*
X-920180Y+784670D01*
X-920180Y+824675D01*
X-907480Y+838010D01*
X-894780Y+838010D01*
X-882080Y+824675D01*
X-882080Y+784670D01*
X-869380Y+771335D01*
X-843980Y+771335D01*
X-843980Y+838010D01*
X-2500000Y+627000D02*
X-2500000Y+754000D01*
X-2563500Y+754000D02*
X-2436500Y+754000D01*
X-2436500Y+1262000D01*
X-2563500Y+1262000D01*
X-2563500Y+754000D01*
X-2500000Y+1262000D02*
X-2500000Y+1389000D01*
X-2593980Y+901320D02*
X-2670180Y+901320D01*
X-2670180Y+967995D01*
X-2657480Y+981330D01*
X-2644780Y+981330D01*
X-2632080Y+967995D01*
X-2632080Y+901320D01*
X-2632080Y+967995D02*
X-2619380Y+981330D01*
X-2593980Y+981330D01*
X-2657480Y+1021335D02*
X-2670180Y+1034670D01*
X-2670180Y+1074675D01*
X-2657480Y+1088010D01*
X-2644780Y+1088010D01*
X-2632080Y+1074675D01*
X-2619380Y+1088010D01*
X-2606680Y+1088010D01*
X-2593980Y+1074675D01*
X-2593980Y+1034670D01*
X-2606680Y+1021335D01*
X-2632080Y+1048005D02*
X-2632080Y+1074675D01*
X-250000Y+361000D02*
X-250000Y+488000D01*
X-313500Y+488000D02*
X-186500Y+488000D01*
X-186500Y+996000D01*
X-313500Y+996000D01*
X-313500Y+488000D01*
X-250000Y+996000D02*
X-250000Y+1123000D01*
X-343980Y+635320D02*
X-420180Y+635320D01*
X-420180Y+701995D01*
X-407480Y+715330D01*
X-394780Y+715330D01*
X-382080Y+701995D01*
X-382080Y+635320D01*
X-382080Y+701995D02*
X-369380Y+715330D01*
X-343980Y+715330D01*
X-394780Y+768670D02*
X-420180Y+795340D01*
X-343980Y+795340D01*
M02*
